<?xml version="1.0" encoding="UTF-8"?>
<!DOCTYPE svg PUBLIC "-//W3C//DTD SVG 1.1//EN" "http://www.w3.org/Graphics/SVG/1.1/DTD/svg11.dtd">
<!-- Creator: CorelDRAW 2020 (64-Bit Versión de evaluación) -->
<svg xmlns="http://www.w3.org/2000/svg" xml:space="preserve" width="297mm" height="210mm" version="1.1" style="shape-rendering:geometricPrecision; text-rendering:geometricPrecision; image-rendering:optimizeQuality; fill-rule:evenodd; clip-rule:evenodd"
viewBox="0 0 29700 21000"
 xmlns:xlink="http://www.w3.org/1999/xlink"
 xmlns:xodm="http://www.corel.com/coreldraw/odm/2003"
 data-name="Capa 1">
 <defs>
  <style type="text/css">
   <![CDATA[
    .fil0 {fill:#0E4C73;fill-rule:nonzero}
    .fil1 {fill:#D4E9FB;fill-rule:nonzero}
    .fil2 {fill:#FEFEFE;fill-rule:nonzero}
   ]]>
  </style>
 </defs>
 <g id="Capa_x0020_1">
  <metadata id="CorelCorpID_0Corel-Layer"/>
  <path class="fil0" d="M1956.96 11996.04c3.7,-488.16 167.48,-902.76 567,-1203.59 238.13,-179.39 524.93,-261.41 795.07,-374.39 800.63,-335.23 1609.99,-650.35 2405.06,-998.01 952.5,-416.45 1884.63,216.69 2001.04,1054.63 2.58,8.34 6.53,16.23 11.66,23.28 41.54,186.8 20.11,373.86 -9.53,557.74 -80.96,497.68 -174.63,993.25 -266.17,1489.08 -60.33,326.5 -119.06,653.52 -185.21,978.96 -37.57,183.36 -62.44,368.3 -110.86,551.13 -158.75,600.6 -769.67,930.8 -1198.03,971.29 -412.49,38.89 -764.38,-88.37 -1097.23,-325.44 -751.95,-535.69 -1508.66,-1064.86 -2270.13,-1587.5 -264.91,-176.25 -469.56,-430.41 -585.02,-727.09 -55.01,-135.19 -53.16,-271.45 -57.65,-410.09z"/>
  <path class="fil1" d="M1956.96 11996.04c33.87,153.72 48.15,311.94 112.45,457.99 106.38,247.87 281.08,461.33 502.78,614.63 790.05,550.07 1591.73,1084.79 2363.79,1658.41 838.46,623.09 2090.21,208.76 2275.42,-942.98 156.1,-970.76 340.52,-1937.01 514.09,-2904.86 22.75,-127.26 8.73,-254 11.64,-381.26 33.6,17.99 30.69,50.01 31.22,80.7 5.56,311.15 -5.03,618.07 -79.38,926.04 -81.76,337.61 -109.01,687.92 -190.24,1025.79 -54.5,227.01 -65.88,459.85 -138.91,685.54 -66.41,204.79 -50.01,434.98 -96.84,648.23 -70.11,319.09 -155.31,639.5 -388.94,885.56 -192.13,199.51 -434.58,344.41 -701.19,419.14 -465.93,139.44 -876.56,15.08 -1252.01,-252.94 -410.1,-292.63 -829.73,-571.24 -1236.13,-868.36 -303.48,-221.99 -613.3,-435.24 -926.04,-641.09 -249.77,-164.04 -462.49,-351.63 -626.53,-600.08 -112.98,-171.45 -142.61,-373.59 -222.51,-556.95 -37.87,-81.53 56.85,-162.76 47.33,-253.51z"/>
  <path class="fil0" d="M108.58 4446.68l-52.92 -52.92c-0.53,-1399.11 -1.76,-2797.96 -3.7,-4196.55 0,-104.25 26.45,-129.38 129.91,-129.12 1655.23,3.53 3310.64,4.32 4966.23,2.38l28.05 26.46c135.73,299.24 261.41,601.13 325.44,926.04 250.03,1265.24 -288.66,2609.59 -1367.63,3324.75 -1284.56,851.7 -2609.6,882.66 -3955.8,137.33 -23.02,-13.76 -46.83,-26.46 -69.58,-38.37z"/>
  <path class="fil2" d="M22879.41 384c-35.19,36.25 -70.38,72.76 -105.83,109.01 -29.37,-121.18 -12.17,-139.17 105.83,-109.01z"/>
 </g>
</svg>
