<?xml version="1.0" encoding="UTF-8"?>
<!DOCTYPE svg PUBLIC "-//W3C//DTD SVG 1.1//EN" "http://www.w3.org/Graphics/SVG/1.1/DTD/svg11.dtd">
<!-- Creator: CorelDRAW 2020 (64-Bit Versión de evaluación) -->
<svg xmlns="http://www.w3.org/2000/svg" xml:space="preserve" width="210mm" height="297mm" version="1.1" style="shape-rendering:geometricPrecision; text-rendering:geometricPrecision; image-rendering:optimizeQuality; fill-rule:evenodd; clip-rule:evenodd"
viewBox="0 0 21000 29700"
 xmlns:xlink="http://www.w3.org/1999/xlink"
 xmlns:xodm="http://www.corel.com/coreldraw/odm/2003">
 <defs>
  <style type="text/css">
   <![CDATA[
    .fil0 {fill:#0E4C73;fill-rule:nonzero}
    .fil1 {fill:#D5E9FB;fill-rule:nonzero}
   ]]>
  </style>
 </defs>
 <g id="Capa_x0020_1">
  <metadata id="CorelCorpID_0Corel-Layer"/>
  <g id="_2342980014176">
   <path class="fil0" d="M4344.44 12210.98c62.97,-346.6 201.88,-652.2 474.66,-887.15 119.8,-103.19 256.19,-186.75 402.64,-246.59l5680.93 -2343.68c897.2,-370.42 1789.64,114.3 1980.94,1075 62.97,287.6 -5.82,567.53 -58.21,846.67 -109.01,576.26 -208.76,1154.38 -330.46,1728.26 -94.99,446.08 -168.81,895.88 -261.15,1341.96 -90.22,437.09 -158.75,879.48 -243.15,1318.15 -54.77,283.37 -107.69,567.27 -166.16,849.58 -122.5,594.52 -635,1040.08 -1231.37,1106.49 -57.76,7.25 -116.36,10.99 -174.63,10.99 -277.74,0 -549.37,-83.41 -779.38,-238.84 -840.58,-563.3 -1673.23,-1137.71 -2509.31,-1708.15 -650.61,-443.44 -1297.78,-892.18 -1952.36,-1330.06 -117.21,-79.38 -233.89,-157.43 -342.64,-246.86 -403.3,-333.33 -558.61,-763.01 -490.35,-1275.77z"/>
   <path class="fil1" d="M4344.44 12210.98c-24.34,446.62 89.43,844.81 416.19,1164.17 167.48,164.31 372,280.19 563.83,411.43 1414.99,968.37 2831.04,1935.33 4248.15,2900.88 563.83,384.97 1208.88,381.79 1717.94,-9.26 343.96,-264.58 480.75,-630.5 555.63,-1041.14 245.53,-1325.3 502.71,-2648.48 754.33,-3972.45 90.49,-474.4 182.03,-948.27 270.14,-1422.93 26.46,-143.4 17.2,-289.19 11.64,-434.18 68.79,182.3 57.94,363.01 14.55,551.66 -34.66,151.61 -37.84,310.36 -71.44,464.08 -52.92,239.98 -98.43,481.54 -143.4,723.11 -24.87,132.29 -42.86,266.96 -64.56,400.05 -50.8,314.59 -122.24,623.36 -200.55,932.13 -47.63,188.38 -47.36,388.94 -68.26,584.2 -2.38,21.96 8.47,51.59 -2.38,64.82 -115.36,140.23 -92.08,319.62 -136.53,479.43 -39.16,141.29 -30.96,291.04 -69.85,437.36 -64.29,238.13 -76.99,487.89 -142.35,729.46 -62.83,231.91 -107.96,471.16 -132.43,710.4 -32.94,330.5 -184.95,637.88 -426.65,865.14 -307.18,296.33 -672.84,439.47 -1094.32,419.36 -357.19,-17.2 -658.28,-185.21 -944.03,-391.32 -305.33,-220.4 -624.15,-422.01 -934.51,-635 -283.63,-194.73 -562.24,-396.88 -846.67,-591.34 -330.99,-226.48 -665.96,-447.15 -997.74,-672.57 -249.77,-169.86 -496.36,-343.96 -745.07,-514.88 -198.44,-136.26 -402.17,-264.58 -596.37,-407.46 -194.2,-142.88 -420.69,-245.27 -575.2,-428.89 -211.67,-251.09 -391.32,-529.17 -388.14,-877.36 4.24,-145.48 -31.21,-296.56 28.05,-438.9z"/>
  </g>
 </g>
</svg>
